<?xml version="1.0" standalone="no"?>
<!DOCTYPE svg PUBLIC "-//W3C//DTD SVG 20010904//EN"
 "http://www.w3.org/TR/2001/REC-SVG-20010904/DTD/svg10.dtd">
<svg version="1.0" xmlns="http://www.w3.org/2000/svg"
 width="482.000000pt" height="199.000000pt" viewBox="0 0 482.000000 199.000000"
 preserveAspectRatio="xMidYMid meet">
<metadata>
Created by potrace 1.16, written by Peter Selinger 2001-2019
</metadata>
<g transform="translate(0.000000,199.000000) scale(0.100000,-0.100000)"
fill="#000000" stroke="none">
<path d="M4525 1770 c-27 -4 -121 -16 -207 -26 -87 -10 -162 -21 -168 -24 -8
-5 -8 -15 0 -34 14 -39 14 -1062 -1 -1105 -6 -18 -9 -34 -7 -37 7 -6 203 17
217 26 9 5 9 14 1 34 -5 15 -10 108 -10 212 0 218 -17 196 169 219 69 9 131
21 140 28 8 7 32 34 53 60 l38 49 0 261 0 261 -46 43 c-51 47 -69 50 -179 33z
m23 -359 c2 -128 0 -157 -13 -171 -19 -21 -152 -35 -172 -18 -18 15 -19 311 0
326 15 13 65 20 132 18 l50 -1 3 -154z"/>
<path d="M3837 1687 c-58 -8 -67 -12 -60 -26 4 -9 9 -226 11 -483 2 -397 0
-468 -12 -481 -17 -17 -164 -33 -178 -19 -5 5 -8 213 -6 495 3 482 3 486 -17
482 -11 -2 -49 -7 -85 -10 -102 -10 -113 -14 -104 -39 5 -11 11 -257 14 -545
l5 -524 45 -38 46 -39 194 25 195 24 47 51 47 51 4 517 c2 284 7 529 11 545 8
27 8 27 -40 26 -27 -1 -80 -6 -117 -12z"/>
<path d="M3105 1599 c-38 -5 -72 -13 -76 -17 -6 -7 -21 -43 -160 -384 -35 -87
-69 -158 -75 -158 -6 0 -23 28 -39 63 -16 34 -55 118 -88 187 -32 69 -70 151
-84 183 -14 31 -31 57 -37 57 -21 0 -181 -20 -193 -25 -8 -3 -8 -14 3 -42 19
-55 19 -1040 0 -1095 l-14 -38 45 0 c24 0 76 5 114 12 69 11 71 12 63 37 -10
38 -17 662 -6 690 7 19 20 -6 87 -161 44 -100 84 -186 90 -190 9 -7 42 -4 101
7 14 3 28 23 46 67 14 35 51 127 83 205 33 82 62 140 67 137 12 -8 0 -651 -12
-696 -8 -27 -8 -28 30 -28 22 0 73 5 115 11 72 11 76 13 68 33 -10 28 -10
1105 1 1134 8 20 6 22 -25 21 -19 -1 -65 -6 -104 -10z"/>
<path d="M1833 1446 c-45 -6 -84 -13 -87 -17 -3 -3 -2 -18 2 -34 5 -16 3 -53
-4 -84 -11 -54 -75 -334 -94 -416 -5 -22 -19 -80 -30 -130 -11 -49 -24 -108
-30 -130 -23 -102 -59 -263 -66 -295 -3 -19 -15 -52 -26 -73 -11 -22 -17 -41
-14 -44 3 -3 45 0 93 6 133 18 135 19 128 41 -7 24 30 185 50 216 11 17 30 23
112 32 92 10 99 9 114 -9 20 -22 53 -161 46 -195 -4 -20 0 -24 22 -24 37 0
195 20 200 26 3 2 -3 19 -11 38 -15 31 -44 140 -118 449 -68 284 -92 387 -116
485 -16 67 -22 116 -18 138 l6 34 -38 -2 c-22 0 -76 -6 -121 -12z m70 -487
c16 -72 31 -153 34 -180 5 -46 4 -49 -21 -59 -34 -12 -113 -13 -120 -1 -3 5
10 88 29 185 19 97 35 179 35 181 0 3 3 5 8 5 4 0 20 -59 35 -131z"/>
<path d="M1155 1364 c-104 -13 -221 -27 -260 -32 l-70 -7 4 -30 c8 -63 6
-1092 -3 -1124 l-9 -34 49 7 c47 6 163 21 412 50 62 8 115 16 117 18 8 8 37
199 32 205 -3 3 -21 0 -39 -7 -18 -6 -100 -20 -183 -31 l-150 -19 -17 21 c-15
17 -18 41 -18 134 0 152 6 160 122 161 l83 0 3 112 c1 63 -1 112 -6 112 -5 0
-25 -7 -44 -14 -19 -8 -56 -16 -83 -17 -68 -4 -75 10 -75 142 0 143 1 144 145
165 61 8 145 16 188 16 50 0 77 4 77 12 0 6 -7 50 -16 99 -19 103 13 95 -259
61z"/>
<path d="M605 1298 c-38 -5 -175 -22 -303 -37 -128 -16 -236 -31 -239 -34 -9
-9 -37 -197 -30 -203 3 -3 25 1 49 9 58 21 167 30 184 16 11 -9 14 -95 14
-460 0 -276 -4 -458 -10 -474 -6 -15 -8 -30 -6 -34 5 -8 212 12 222 21 3 4 1
21 -5 39 -17 48 -15 909 2 932 14 20 144 39 201 30 33 -5 36 -4 36 18 0 33
-30 173 -38 180 -4 3 -38 1 -77 -3z"/>
</g>
</svg>
