<?xml version="1.0" standalone="no"?>
<!DOCTYPE svg PUBLIC "-//W3C//DTD SVG 20010904//EN"
 "http://www.w3.org/TR/2001/REC-SVG-20010904/DTD/svg10.dtd">
<svg version="1.0" xmlns="http://www.w3.org/2000/svg"
 width="559.000000pt" height="693.000000pt" viewBox="0 0 559.000000 693.000000"
 preserveAspectRatio="xMidYMid meet">
<metadata>
Created by potrace 1.16, written by Peter Selinger 2001-2019
</metadata>
<g transform="translate(0.000000,693.000000) scale(0.100000,-0.100000)"
fill="#ffff" stroke="none">
<path d="M3227 6750 c-105 -18 -195 -84 -248 -182 -32 -60 -34 -68 -34 -163 0
-91 3 -105 29 -158 36 -71 99 -130 174 -165 81 -38 202 -38 283 0 201 93 271
336 149 520 -73 110 -219 171 -353 148z m126 -141 c44 -12 102 -60 124 -103
76 -146 -25 -316 -188 -316 -185 0 -284 216 -161 353 63 68 137 91 225 66z"/>
<path d="M2780 6580 c-58 -11 -133 -26 -167 -34 -304 -76 -620 -299 -753 -533
-72 -125 -84 -169 -83 -318 0 -112 4 -143 27 -220 52 -176 138 -324 260 -454
154 -161 328 -254 501 -267 104 -8 171 7 221 50 34 30 38 38 42 94 4 55 1 70
-26 125 -49 100 -129 168 -317 271 -199 109 -256 152 -305 227 -47 73 -64 141
-58 228 17 224 173 398 628 701 111 74 180 128 180 141 0 12 -28 10 -150 -11z"/>
<path d="M3604 5819 c-89 -28 -150 -65 -219 -133 -107 -107 -152 -225 -143
-377 7 -105 33 -174 101 -265 223 -294 680 -255 854 72 79 148 81 281 8 443
-32 70 -151 189 -225 224 -123 59 -263 72 -376 36z"/>
<path d="M4022 4400 c-87 -37 -122 -102 -98 -182 33 -109 143 -224 390 -403
96 -70 201 -153 232 -184 l56 -56 -52 -47 c-133 -119 -664 -430 -825 -483
-174 -57 -167 -69 33 -62 162 5 337 31 569 83 349 78 573 206 655 372 28 57
33 77 33 142 0 88 -24 146 -104 251 -148 196 -485 470 -665 543 -76 30 -185
43 -224 26z"/>
<path d="M2236 3594 c-201 -49 -440 -274 -776 -732 -147 -201 -231 -363 -246
-477 -19 -134 61 -214 214 -215 131 0 189 40 482 331 295 293 508 564 581 739
41 98 57 197 38 246 -12 34 -24 44 -89 76 -92 45 -128 50 -204 32z"/>
<path d="M2811 3155 c-133 -37 -274 -132 -382 -256 -82 -95 -296 -383 -449
-604 -201 -291 -1111 -1723 -1218 -1915 -77 -138 -107 -210 -89 -210 24 0 64
36 169 151 59 63 159 162 224 220 65 57 181 160 258 229 163 145 1061 1024
1232 1205 204 217 415 499 498 664 104 207 119 338 50 444 -46 70 -180 103
-293 72z"/>
</g>
</svg>
