<?xml version="1.0" standalone="no"?>
<!DOCTYPE svg PUBLIC "-//W3C//DTD SVG 20010904//EN"
 "http://www.w3.org/TR/2001/REC-SVG-20010904/DTD/svg10.dtd">
<svg version="1.0" xmlns="http://www.w3.org/2000/svg"
 width="387.000000pt" height="374.000000pt" viewBox="0 0 387.000000 374.000000"
 preserveAspectRatio="xMidYMid meet">
<metadata>
Created by potrace 1.16, written by Peter Selinger 2001-2019
</metadata>
<g transform="translate(0.000000,374.000000) scale(0.100000,-0.100000)"
fill="#1D3F56" stroke="none">
<path d="M1700 3640 c-380 -53 -714 -212 -981 -467 -389 -373 -577 -859 -539
-1393 29 -409 196 -779 484 -1078 266 -276 589 -444 986 -514 98 -17 430 -17
530 0 281 50 534 154 760 315 112 80 308 278 393 397 81 115 195 340 236 470
66 206 75 271 75 540 0 216 -2 257 -22 347 -50 228 -138 434 -270 633 -93 141
-290 342 -432 443 -188 133 -441 240 -676 288 -123 24 -428 35 -544 19z m-752
-637 c4 -68 37 -101 107 -105 42 -3 50 -6 50 -23 0 -17 -8 -20 -50 -23 -71 -4
-105 -38 -105 -103 0 -31 -5 -49 -14 -52 -22 -9 -36 14 -36 60 0 59 -33 91
-97 95 -41 3 -48 6 -51 26 -3 20 0 22 47 22 70 0 101 31 101 100 0 46 10 62
35 56 6 -1 11 -25 13 -53z m1837 -67 c96 -40 99 -192 5 -241 l-30 -16 0 -202
0 -202 63 -25 62 -25 3 -232 2 -231 -79 -31 c-44 -17 -84 -31 -88 -31 -4 0
-21 -31 -38 -67 -35 -79 -94 -173 -141 -225 l-34 -38 21 -52 c11 -29 29 -73
40 -97 10 -24 19 -47 19 -51 0 -5 -24 -36 -52 -70 -89 -104 -237 -204 -363
-243 -34 -10 -112 -17 -245 -21 -187 -5 -198 -5 -275 19 -144 44 -272 130
-382 258 -47 55 -47 48 6 180 l32 79 -37 40 c-49 55 -106 145 -139 221 l-28
63 -78 28 c-43 15 -83 34 -89 41 -7 8 -9 89 -8 235 l3 223 69 29 c38 15 76 28
85 28 10 0 24 21 39 59 47 120 143 247 261 342 114 93 236 149 380 174 202 36
394 -2 589 -117 88 -51 228 -199 284 -299 l48 -84 0 162 0 162 -30 16 c-91 47
-91 188 1 237 41 22 78 23 124 4z m133 -1818 c7 -7 12 -31 12 -54 0 -61 31
-92 96 -96 41 -3 49 -6 49 -23 0 -17 -8 -20 -49 -23 -66 -4 -96 -35 -96 -96 0
-54 -24 -81 -46 -51 -8 10 -14 37 -14 60 0 53 -28 78 -95 85 -42 4 -50 8 -50
25 0 17 8 21 50 25 69 7 95 31 95 90 0 41 13 70 30 70 3 0 11 -5 18 -12z"/>
<path d="M1750 2776 c-186 -43 -351 -154 -462 -310 l-21 -28 40 25 c80 51 241
108 371 132 112 21 357 22 464 1 138 -27 286 -79 367 -131 55 -34 44 -14 -41
79 -80 89 -216 178 -323 213 -66 22 -102 27 -210 29 -81 2 -151 -2 -185 -10z"/>
<path d="M1685 2521 c-177 -33 -344 -107 -444 -197 l-51 -46 0 -289 0 -289 61
-48 c115 -90 267 -155 439 -188 114 -21 328 -21 444 0 177 34 352 112 459 206
l47 42 0 276 c-1 313 6 285 -90 361 -151 119 -345 179 -605 186 -128 4 -180 1
-260 -14z m416 -71 c156 -22 326 -89 427 -169 l52 -41 0 -249 0 -248 -57 -43
c-323 -242 -951 -234 -1240 15 l-43 37 0 244 0 244 51 40 c185 146 503 212
810 170z"/>
<path d="M1033 2184 l-33 -14 0 -179 0 -179 36 -12 c19 -7 37 -10 40 -7 2 2
-1 28 -7 57 -11 53 -7 267 7 323 7 30 3 31 -43 11z"/>
<path d="M2740 2193 c0 -5 5 -26 10 -48 13 -51 13 -258 0 -310 -5 -22 -7 -41
-5 -43 2 -2 20 1 39 8 l36 12 0 179 0 180 -35 15 c-39 16 -45 17 -45 7z"/>
<path d="M1280 1534 c0 -18 90 -116 153 -167 141 -114 295 -168 477 -168 132
0 219 19 335 76 99 49 188 120 259 207 l46 57 -77 -40 c-82 -41 -227 -89 -328
-108 -273 -50 -630 4 -827 126 -21 13 -38 20 -38 17z"/>
<path d="M1338 1243 l-28 -68 73 -70 c77 -74 147 -121 249 -164 60 -25 72 -26
269 -29 196 -3 208 -2 272 21 111 41 227 120 306 209 l31 35 -26 64 c-14 35
-27 65 -28 67 -2 1 -39 -22 -83 -52 -242 -161 -555 -183 -818 -57 -45 21 -104
55 -132 75 -28 20 -52 36 -54 36 -2 0 -16 -31 -31 -67z"/>
</g>
</svg>
