<?xml version="1.0" encoding="UTF-8"?>
<svg xmlns="http://www.w3.org/2000/svg" xmlns:xlink="http://www.w3.org/1999/xlink" width="1440"  viewBox="0 0 1440 1440" height="1440" preserveAspectRatio="xMidYMid meet" version="1.0">
<defs><clipPath id="clip-0">
<path d="M 654 710 L 789 710 L 789 796.683594 L 654 796.683594 Z M 654 710 " clip-rule="nonzero"/></clipPath></defs>
<path fill="rgb(100%, 91.369629%, 78.42865%)" d="M 627.191406 783.234375 L 533.101562 783.234375 C 488.558594 783.234375 452.453125 747.105469 452.453125 702.535156 L 627.191406 702.535156 Z M 627.191406 783.234375 " fill-opacity="1" fill-rule="nonzero"/><path fill="rgb(100%, 91.369629%, 78.42865%)" d="M 869.136719 729.433594 L 788.488281 729.433594 L 788.488281 594.9375 C 788.488281 572.652344 806.539062 554.589844 828.8125 554.589844 C 851.082031 554.589844 869.136719 572.652344 869.136719 594.9375 Z M 869.136719 729.433594 " fill-opacity="1" fill-rule="nonzero"/><path fill="rgb(0%, 34.509277%, 49.409485%)" d="M 815.371094 783.234375 L 627.191406 783.234375 C 597.5 783.234375 573.425781 759.144531 573.425781 729.433594 C 573.425781 699.726562 597.5 675.636719 627.191406 675.636719 L 815.371094 675.636719 C 845.0625 675.636719 869.136719 699.726562 869.136719 729.433594 C 869.136719 759.144531 845.0625 783.234375 815.371094 783.234375 Z M 815.371094 783.234375 " fill-opacity="1" fill-rule="nonzero"/><g clip-path="url(#clip-0)"><path fill="rgb(83.918762%, 59.21936%, 1.179504%)" d="M 654.074219 729.433594 C 654.074219 722.710938 655.019531 716.257812 657.03125 710.207031 C 677.726562 714.234375 699.234375 716.386719 721.28125 716.386719 C 743.324219 716.386719 764.832031 714.234375 785.527344 710.207031 C 787.542969 716.257812 788.488281 722.710938 788.488281 729.433594 C 788.488281 751.359375 777.871094 770.992188 761.605469 783.234375 C 750.445312 791.710938 736.472656 796.683594 721.28125 796.683594 C 706.089844 796.683594 692.113281 791.710938 680.957031 783.234375 C 664.6875 770.992188 654.074219 751.359375 654.074219 729.433594 Z M 654.074219 729.433594 " fill-opacity="1" fill-rule="nonzero"/></g><path fill="rgb(90.19928%, 73.329163%, 18.429565%)" d="M 657.03125 710.207031 C 661.066406 696.214844 669.667969 684.113281 680.957031 675.636719 C 692.113281 667.160156 706.089844 662.1875 721.28125 662.1875 C 736.472656 662.1875 750.445312 667.160156 761.605469 675.636719 C 772.890625 684.113281 781.496094 696.214844 785.527344 710.207031 C 764.832031 714.234375 743.324219 716.386719 721.28125 716.386719 C 699.234375 716.386719 677.726562 714.234375 657.03125 710.207031 Z M 657.03125 710.207031 " fill-opacity="1" fill-rule="nonzero"/><path fill="rgb(100%, 91.369629%, 78.42865%)" d="M 1024.578125 631.144531 L 995.496094 720.679688 C 981.734375 763.066406 936.238281 786.265625 893.875 772.488281 L 947.875 606.207031 Z M 1024.578125 631.144531 " fill-opacity="1" fill-rule="nonzero"/><path fill="rgb(100%, 91.369629%, 78.42865%)" d="M 1048.203125 384.269531 L 1023.28125 461.019531 L 895.449219 419.460938 C 874.273438 412.570312 862.675781 389.8125 869.5625 368.613281 C 876.441406 347.421875 899.195312 335.820312 920.371094 342.710938 Z M 1048.203125 384.269531 " fill-opacity="1" fill-rule="nonzero"/><path fill="rgb(0%, 34.509277%, 49.409485%)" d="M 1082.726562 452.058594 L 1024.578125 631.144531 C 1015.398438 659.402344 985.066406 674.867188 956.828125 665.679688 C 928.589844 656.503906 913.132812 626.152344 922.304688 597.886719 L 980.453125 418.8125 C 989.632812 390.554688 1019.964844 375.089844 1048.203125 384.269531 C 1076.445312 393.453125 1091.90625 423.804688 1082.726562 452.058594 Z M 1082.726562 452.058594 " fill-opacity="1" fill-rule="nonzero"/><path fill="rgb(83.918762%, 59.21936%, 1.179504%)" d="M 981.75 588.929688 C 975.351562 586.855469 969.515625 583.964844 964.378906 580.175781 C 974.617188 561.722656 983.308594 541.925781 990.117188 520.945312 C 996.933594 499.964844 1001.527344 478.835938 1004.089844 457.890625 C 1010.46875 457.839844 1016.894531 458.941406 1023.28125 461.019531 C 1044.125 467.796875 1059.5 483.96875 1066.109375 503.222656 C 1070.71875 516.464844 1071.132812 531.304688 1066.433594 545.761719 C 1061.742188 560.210938 1052.695312 571.976562 1041.1875 579.972656 C 1024.53125 591.671875 1002.585938 595.707031 981.75 588.929688 Z M 981.75 588.929688 " fill-opacity="1" fill-rule="nonzero"/><path fill="rgb(90.19928%, 73.329163%, 18.429565%)" d="M 964.378906 580.175781 C 952.328125 572.011719 943.480469 560.085938 938.921875 546.726562 C 934.320312 533.492188 933.910156 518.652344 938.597656 504.195312 C 943.289062 489.738281 952.339844 477.980469 963.84375 469.976562 C 975.386719 461.851562 989.546875 457.402344 1004.089844 457.890625 C 1001.527344 478.835938 996.933594 499.964844 990.117188 520.945312 C 983.308594 541.925781 974.617188 561.722656 964.378906 580.175781 Z M 964.378906 580.175781 " fill-opacity="1" fill-rule="nonzero"/><path fill="rgb(100%, 91.369629%, 78.42865%)" d="M 1002.8125 205.972656 L 1078.9375 261.3125 C 1114.972656 287.511719 1122.964844 337.972656 1096.78125 374.03125 L 955.410156 271.257812 Z M 1002.8125 205.972656 " fill-opacity="1" fill-rule="nonzero"/><path fill="rgb(100%, 91.369629%, 78.42865%)" d="M 775.472656 107.191406 L 840.722656 154.632812 L 761.71875 263.441406 C 748.625 281.46875 723.40625 285.460938 705.386719 272.363281 C 687.371094 259.269531 683.378906 234.035156 696.472656 216.007812 Z M 775.472656 107.191406 " fill-opacity="1" fill-rule="nonzero"/><path fill="rgb(0%, 34.509277%, 49.409485%)" d="M 850.574219 95.292969 L 1002.8125 205.972656 C 1026.84375 223.433594 1032.164062 257.082031 1014.714844 281.117188 C 997.257812 305.15625 963.636719 310.488281 939.613281 293.019531 L 787.375 182.339844 C 763.34375 164.878906 758.023438 131.234375 775.472656 107.191406 C 792.933594 83.15625 826.554688 77.832031 850.574219 95.292969 Z M 850.574219 95.292969 " fill-opacity="1" fill-rule="nonzero"/><path fill="rgb(83.918762%, 59.21936%, 1.179504%)" d="M 949.46875 233.683594 C 945.511719 239.125 940.960938 243.789062 935.773438 247.503906 C 921.394531 232.066406 905.265625 217.679688 887.433594 204.710938 C 869.597656 191.742188 850.933594 180.839844 831.8125 171.925781 C 833.738281 165.839844 836.773438 160.070312 840.722656 154.632812 C 853.601562 136.894531 873.730469 127.25 894.074219 126.917969 C 908.078125 126.621094 922.304688 130.816406 934.601562 139.746094 C 946.886719 148.6875 955.269531 160.929688 959.320312 174.351562 C 965.289062 193.816406 962.339844 215.945312 949.46875 233.683594 Z M 949.46875 233.683594 " fill-opacity="1" fill-rule="nonzero"/><path fill="rgb(90.19928%, 73.329163%, 18.429565%)" d="M 935.773438 247.503906 C 924.300781 256.453125 910.230469 261.179688 896.113281 261.398438 C 882.113281 261.6875 867.875 257.492188 855.589844 248.5625 C 843.300781 239.632812 834.917969 227.378906 830.867188 213.964844 C 826.710938 200.472656 826.859375 185.613281 831.8125 171.925781 C 850.933594 180.839844 869.597656 191.742188 887.433594 204.710938 C 905.265625 217.679688 921.394531 232.066406 935.773438 247.503906 Z M 935.773438 247.503906 " fill-opacity="1" fill-rule="nonzero"/><path fill="rgb(100%, 91.369629%, 78.42865%)" d="M 591.984375 95.292969 L 668.101562 39.949219 C 704.136719 13.761719 754.566406 21.746094 780.75 57.804688 L 639.390625 160.578125 Z M 591.984375 95.292969 " fill-opacity="1" fill-rule="nonzero"/><path fill="rgb(100%, 91.369629%, 78.42865%)" d="M 427.84375 281.117188 L 493.089844 233.683594 L 572.101562 342.492188 C 585.195312 360.519531 581.195312 385.757812 563.175781 398.855469 C 545.160156 411.957031 519.949219 407.953125 506.855469 389.925781 Z M 427.84375 281.117188 " fill-opacity="1" fill-rule="nonzero"/><path fill="rgb(0%, 34.509277%, 49.409485%)" d="M 439.746094 205.972656 L 591.984375 95.292969 C 616.007812 77.832031 649.628906 83.15625 667.085938 107.191406 C 684.535156 131.234375 679.214844 164.878906 655.183594 182.339844 L 502.945312 293.019531 C 478.925781 310.488281 445.304688 305.15625 427.84375 281.117188 C 410.394531 257.082031 415.714844 223.433594 439.746094 205.972656 Z M 439.746094 205.972656 " fill-opacity="1" fill-rule="nonzero"/><path fill="rgb(83.918762%, 59.21936%, 1.179504%)" d="M 601.839844 154.632812 C 605.785156 160.070312 608.820312 165.839844 610.746094 171.925781 C 591.625 180.839844 572.960938 191.742188 555.125 204.710938 C 537.292969 217.679688 521.164062 232.066406 506.785156 247.503906 C 501.597656 243.789062 497.046875 239.125 493.089844 233.683594 C 480.21875 215.945312 477.269531 193.816406 483.238281 174.351562 C 487.289062 160.929688 495.671875 148.6875 507.960938 139.746094 C 520.253906 130.816406 534.484375 126.621094 548.484375 126.917969 C 568.832031 127.25 588.957031 136.894531 601.839844 154.632812 Z M 601.839844 154.632812 " fill-opacity="1" fill-rule="nonzero"/><path fill="rgb(90.19928%, 73.329163%, 18.429565%)" d="M 610.746094 171.925781 C 615.699219 185.613281 615.847656 200.472656 611.691406 213.964844 C 607.640625 227.378906 599.257812 239.632812 586.972656 248.5625 C 574.683594 257.492188 560.445312 261.6875 546.445312 261.398438 C 532.332031 261.179688 518.257812 256.453125 506.785156 247.503906 C 521.164062 232.066406 537.292969 217.679688 555.125 204.710938 C 572.960938 191.742188 591.625 180.839844 610.746094 171.925781 Z M 610.746094 171.925781 " fill-opacity="1" fill-rule="nonzero"/><path fill="rgb(100%, 91.369629%, 78.42865%)" d="M 359.832031 452.058594 L 330.761719 362.519531 C 316.996094 320.136719 340.179688 274.605469 382.542969 260.839844 L 436.535156 427.121094 Z M 359.832031 452.058594 " fill-opacity="1" fill-rule="nonzero"/><path fill="rgb(100%, 91.369629%, 78.42865%)" d="M 485.730469 665.679688 L 460.808594 588.929688 L 588.644531 547.371094 C 609.828125 540.480469 632.570312 552.082031 639.460938 573.273438 C 646.335938 594.472656 634.75 617.230469 613.566406 624.121094 Z M 485.730469 665.679688 " fill-opacity="1" fill-rule="nonzero"/><path fill="rgb(0%, 34.509277%, 49.409485%)" d="M 417.984375 631.144531 L 359.832031 452.058594 C 350.652344 423.804688 366.117188 393.453125 394.355469 384.269531 C 422.59375 375.089844 452.925781 390.554688 462.105469 418.8125 L 520.253906 597.886719 C 529.425781 626.152344 513.972656 656.503906 485.730469 665.679688 C 457.492188 674.867188 427.164062 659.402344 417.984375 631.144531 Z M 417.984375 631.144531 " fill-opacity="1" fill-rule="nonzero"/><path fill="rgb(83.918762%, 59.21936%, 1.179504%)" d="M 419.277344 461.019531 C 425.667969 458.941406 432.089844 457.839844 438.46875 457.890625 C 441.03125 478.835938 445.625 499.964844 452.445312 520.945312 C 459.25 541.925781 467.941406 561.722656 478.179688 580.175781 C 473.042969 583.964844 467.207031 586.855469 460.808594 588.929688 C 439.972656 595.707031 418.027344 591.671875 401.375 579.972656 C 389.867188 571.976562 380.816406 560.210938 376.128906 545.761719 C 371.429688 531.304688 371.839844 516.464844 376.449219 503.222656 C 383.058594 483.96875 398.433594 467.796875 419.277344 461.019531 Z M 419.277344 461.019531 " fill-opacity="1" fill-rule="nonzero"/><path fill="rgb(90.19928%, 73.329163%, 18.429565%)" d="M 438.46875 457.890625 C 453.011719 457.402344 467.171875 461.851562 478.714844 469.976562 C 490.222656 477.980469 499.269531 489.738281 503.960938 504.195312 C 508.652344 518.652344 508.238281 533.492188 503.636719 546.726562 C 499.078125 560.085938 490.230469 572.011719 478.179688 580.175781 C 467.941406 561.722656 459.25 541.925781 452.445312 520.945312 C 445.625 499.964844 441.03125 478.835938 438.46875 457.890625 Z M 438.46875 457.890625 " fill-opacity="1" fill-rule="nonzero"/><path fill="rgb(90.19928%, 73.329163%, 18.429565%)" d="M 773.699219 450.589844 L 786.082031 522.792969 L 721.28125 488.707031 L 656.480469 522.792969 L 668.863281 450.589844 L 616.417969 399.441406 L 688.882812 388.917969 L 721.28125 323.21875 L 753.457031 388.460938 L 753.675781 388.917969 L 826.140625 399.441406 Z M 773.699219 450.589844 " fill-opacity="1" fill-rule="nonzero"/><path fill="rgb(83.918762%, 59.21936%, 1.179504%)" d="M 753.457031 388.460938 L 721.28125 433.539062 L 721.28125 323.21875 Z M 753.457031 388.460938 " fill-opacity="1" fill-rule="nonzero"/><path fill="rgb(83.918762%, 59.21936%, 1.179504%)" d="M 688.386719 388.988281 L 721.28125 433.539062 L 616.425781 399.453125 Z M 688.386719 388.988281 " fill-opacity="1" fill-rule="nonzero"/><path fill="rgb(83.918762%, 59.21936%, 1.179504%)" d="M 668.773438 451.078125 L 721.28125 433.539062 L 656.472656 522.792969 Z M 668.773438 451.078125 " fill-opacity="1" fill-rule="nonzero"/><path fill="rgb(83.918762%, 59.21936%, 1.179504%)" d="M 721.726562 488.933594 L 721.28125 433.539062 L 786.089844 522.792969 Z M 721.726562 488.933594 " fill-opacity="1" fill-rule="nonzero"/><path fill="rgb(83.918762%, 59.21936%, 1.179504%)" d="M 774.066406 450.230469 L 721.28125 433.539062 L 826.132812 399.453125 Z M 774.066406 450.230469 " fill-opacity="1" fill-rule="nonzero"/></svg>