<?xml version="1.0" encoding="UTF-8"?><svg xmlns="http://www.w3.org/2000/svg" xmlns:xlink="http://www.w3.org/1999/xlink" width="1440" zoomAndPan="magnify" viewBox="0 0 1440 809.999993" height="809.999993" preserveAspectRatio="xMidYMid meet" version="1.0"><defs><clipPath id="clip-0"><path d="M 791 278 L 939.480469 278 L 939.480469 429 L 791 429 Z M 791 278 " clip-rule="nonzero"/></clipPath><clipPath id="clip-1"><path d="M 501 406 L 750 406 L 750 706.5 L 501 706.5 Z M 501 406 " clip-rule="nonzero"/></clipPath><clipPath id="clip-2"><path d="M 500.730469 403 L 753 403 L 753 706.5 L 500.730469 706.5 Z M 500.730469 403 " clip-rule="nonzero"/></clipPath><clipPath id="clip-3"><path d="M 501 406 L 750 406 L 750 706.5 L 501 706.5 Z M 501 406 " clip-rule="nonzero"/></clipPath><clipPath id="clip-4"><path d="M 728 47.25 L 800 47.25 L 800 119 L 728 119 Z M 728 47.25 " clip-rule="nonzero"/></clipPath></defs><path stroke-linecap="butt" transform="matrix(2.303707, 0, 0, 2.303459, 376.851609, 29.052691)" fill-opacity="1" fill="rgb(67.83905%, 1.568604%, 8.628845%)" fill-rule="nonzero" stroke-linejoin="miter" d="M 126.779365 21.705658 C 134.699685 17.355881 143.759473 15.792336 152.619176 14.757886 C 150.711585 17.934155 147.015096 19.194149 144.188469 21.361406 C 135.808632 27.313732 126.638627 32.786141 120.744593 41.45856 C 116.576717 47.621168 115.415206 56.532698 120.288466 62.65291 C 126.972667 70.816584 139.021864 72.022311 145.372024 80.596373 C 147.5967 83.906613 149.638247 88.936413 146.592883 92.372142 C 142.840438 95.850268 137.09562 95.068495 132.480096 94.242631 C 122.367317 91.515754 114.163826 83.872696 108.625875 75.210451 C 103.398227 66.195476 99.971344 54.950499 103.740745 44.762016 C 107.93236 34.349686 117.122712 26.879602 126.779365 21.705658 Z M 126.779365 21.705658 " stroke="rgb(0%, 0%, 0%)" stroke-width="0.1" stroke-opacity="1" stroke-miterlimit="10"/><path fill="rgb(67.83905%, 1.568604%, 8.628845%)" d="M 668.914062 79.050781 C 687.160156 69.03125 708.03125 65.429688 728.441406 63.046875 C 724.046875 70.363281 715.53125 73.265625 709.019531 78.257812 C 689.714844 91.96875 668.589844 104.574219 655.011719 124.550781 C 645.410156 138.746094 642.734375 159.273438 653.960938 173.371094 C 669.359375 192.175781 697.117188 194.953125 711.746094 214.703125 C 716.871094 222.328125 721.574219 233.914062 714.558594 241.828125 C 705.914062 249.839844 692.679688 248.039062 682.046875 246.136719 C 658.75 239.855469 639.851562 222.25 627.09375 202.296875 C 615.050781 181.53125 607.15625 155.628906 615.839844 132.160156 C 625.496094 108.175781 646.667969 90.96875 668.914062 79.050781 Z M 668.914062 79.050781 " fill-opacity="1" fill-rule="nonzero"/><path stroke-linecap="butt" transform="matrix(2.303707, 0, 0, 2.303459, 376.851609, 29.052691)" fill-opacity="1" fill="rgb(67.83905%, 1.568604%, 8.628845%)" fill-rule="nonzero" stroke-linejoin="miter" d="M 185.599315 47.890803 C 192.841381 47.195517 200.493791 50.178463 205.036402 55.934074 C 208.2242 59.53769 209.648535 64.328379 210.15553 69.027494 C 209.935097 76.212681 206.281 83.231677 200.256401 87.23381 C 194.506496 90.893388 187.054172 92.058416 180.603969 89.630003 C 170.896447 86.606357 164.256333 75.856559 166.091012 65.832571 C 167.830736 56.388553 176.051184 48.85742 185.599315 47.890803 Z M 185.599315 47.890803 " stroke="rgb(0%, 0%, 0%)" stroke-width="0.1" stroke-opacity="1" stroke-miterlimit="10"/><path fill="rgb(67.83905%, 1.568604%, 8.628845%)" d="M 804.417969 139.367188 C 821.101562 137.765625 838.730469 144.636719 849.195312 157.894531 C 856.539062 166.195312 859.820312 177.230469 860.988281 188.054688 C 860.480469 204.605469 852.0625 220.773438 838.183594 229.992188 C 824.9375 238.421875 807.769531 241.105469 792.910156 235.511719 C 770.546875 228.546875 755.25 203.785156 759.476562 180.695312 C 763.484375 158.941406 782.421875 141.59375 804.417969 139.367188 Z M 804.417969 139.367188 " fill-opacity="1" fill-rule="nonzero"/><path fill="rgb(67.83905%, 1.568604%, 8.628845%)" d="M 827.824219 290.609375 C 831.734375 285.765625 837.9375 281.183594 844.519531 282.203125 C 856.628906 282.636719 867.296875 289.175781 877.152344 295.632812 C 896.46875 309.046875 914.902344 324.40625 928.730469 343.597656 C 933.710938 351.421875 939.003906 360.75 936.445312 370.335938 C 933.707031 383.671875 923.378906 394.253906 911.726562 400.597656 C 894.625 409.957031 875.628906 415.21875 856.523438 418.613281 C 836.246094 422.496094 815.496094 426.765625 794.785156 424.203125 C 801.027344 419.363281 809.394531 419.214844 816.210938 415.484375 C 832.777344 406.800781 849.277344 397.917969 865.175781 388.050781 C 875.9375 381.53125 886.710938 374.632812 895.394531 365.414062 C 878.960938 345.925781 853.867188 336.667969 837.507812 317.078125 C 831.472656 309.949219 823.640625 300.496094 827.824219 290.609375 Z M 827.824219 290.609375 " fill-opacity="1" fill-rule="nonzero"/><g clip-path="url(#clip-0)"><path stroke-linecap="butt" transform="matrix(2.303707, 0, 0, 2.303459, 376.851609, 29.052691)" fill="none" stroke-linejoin="miter" d="M 195.759572 113.549534 C 197.456905 111.446718 200.149576 109.457522 203.006725 109.900131 C 208.263199 110.088366 212.893984 112.927168 217.172076 115.730357 C 225.557001 121.553801 233.558711 128.221762 239.561266 136.553322 C 241.723203 139.950048 244.020792 143.999664 242.910149 148.161205 C 241.721508 153.950732 237.238244 158.544706 232.180159 161.298717 C 224.75666 165.3619 216.510777 167.646168 208.217417 169.119835 C 199.415365 170.80548 190.408142 172.65901 181.417875 171.546553 C 184.127503 169.445433 187.759557 169.380992 190.718443 167.761484 C 197.90964 163.991678 205.07201 160.135385 211.973253 155.851745 C 216.644733 153.021423 221.321299 150.026606 225.0907 146.024473 C 217.957156 137.56403 207.064384 133.544939 199.963056 125.040405 C 197.343297 121.945535 193.943545 117.841652 195.759572 113.549534 Z M 195.759572 113.549534 " stroke="rgb(0%, 0%, 0%)" stroke-width="0.1" stroke-opacity="1" stroke-miterlimit="10"/></g><path fill="rgb(67.83905%, 1.568604%, 8.628845%)" d="M 827.824219 290.609375 C 831.734375 285.765625 837.9375 281.183594 844.519531 282.203125 C 856.628906 282.636719 867.296875 289.175781 877.152344 295.632812 C 896.46875 309.046875 914.902344 324.40625 928.730469 343.597656 C 933.710938 351.421875 939.003906 360.75 936.445312 370.335938 C 933.707031 383.671875 923.378906 394.253906 911.726562 400.597656 C 894.625 409.957031 875.628906 415.21875 856.523438 418.613281 C 836.246094 422.496094 815.496094 426.765625 794.785156 424.203125 C 801.027344 419.363281 809.394531 419.214844 816.210938 415.484375 C 832.777344 406.800781 849.277344 397.917969 865.175781 388.050781 C 875.9375 381.53125 886.710938 374.632812 895.394531 365.414062 C 878.960938 345.925781 853.867188 336.667969 837.507812 317.078125 C 831.472656 309.949219 823.640625 300.496094 827.824219 290.609375 Z M 827.824219 290.609375 " fill-opacity="1" fill-rule="nonzero"/><path stroke-linecap="butt" transform="matrix(2.303707, 0, 0, 2.303459, 376.851609, 29.052691)" fill-opacity="1" fill="rgb(67.83905%, 1.568604%, 8.628845%)" fill-rule="nonzero" stroke-linejoin="miter" d="M 124.659818 144.859445 C 127.552575 144.479581 130.099422 146.268671 132.64966 147.347212 C 135.015073 148.103547 135.476287 150.891474 135.379635 153.053644 C 134.825162 158.037656 132.698833 162.735076 129.933249 166.874571 C 121.872191 179.208264 111.535588 189.859705 100.705555 199.773465 C 97.227804 203.258373 93.149797 206.797548 88.015408 207.211328 C 84.456266 207.202849 80.095088 206.21249 78.513058 202.607179 C 76.93442 199.005258 78.536797 195.128616 79.820395 191.718323 C 82.801324 184.266893 88.040843 178.128027 92.724192 171.728005 C 98.555487 164.003549 104.778475 156.406278 112.40545 150.377641 C 115.932375 147.538839 120.120598 145.393628 124.659818 144.859445 Z M 124.659818 144.859445 " stroke="rgb(0%, 0%, 0%)" stroke-width="0.1" stroke-opacity="1" stroke-miterlimit="10"/><path fill="rgb(67.83905%, 1.568604%, 8.628845%)" d="M 664.03125 362.730469 C 670.695312 361.855469 676.5625 365.976562 682.4375 368.460938 C 687.886719 370.203125 688.949219 376.625 688.726562 381.605469 C 687.449219 393.085938 682.550781 403.90625 676.179688 413.441406 C 657.609375 441.851562 633.796875 466.386719 608.847656 489.222656 C 600.835938 497.25 591.441406 505.402344 579.613281 506.355469 C 571.414062 506.335938 561.367188 504.054688 557.722656 495.75 C 554.085938 487.453125 557.777344 478.523438 560.734375 470.667969 C 567.601562 453.503906 579.671875 439.363281 590.460938 424.621094 C 603.894531 406.828125 618.230469 389.328125 635.800781 375.441406 C 643.925781 368.902344 653.574219 363.960938 664.03125 362.730469 Z M 664.03125 362.730469 " fill-opacity="1" fill-rule="nonzero"/><g clip-path="url(#clip-1)"><path fill="rgb(67.83905%, 1.568604%, 8.628845%)" d="M 711.1875 409.308594 C 721.167969 405.066406 733.144531 405.347656 742.402344 411.230469 C 749.914062 418.449219 751.1875 430.0625 748.109375 439.65625 C 741.621094 461.378906 728.011719 480.023438 714.269531 497.710938 C 687.523438 532.175781 654.515625 560.90625 623.867188 591.722656 C 601.691406 612.546875 581.09375 635.089844 557.550781 654.425781 C 541.019531 668.535156 524.972656 683.273438 510.886719 699.871094 C 508.460938 703.066406 504.855469 704.925781 501.230469 706.429688 C 504.277344 695.371094 511.601562 686.113281 516.539062 675.863281 C 552.667969 618.972656 588.070312 561.613281 625.183594 505.355469 C 636.996094 488.101562 648.8125 470.839844 661.472656 454.199219 C 674.558594 436.066406 689.425781 417.167969 711.1875 409.308594 Z M 711.1875 409.308594 " fill-opacity="1" fill-rule="nonzero"/></g><g clip-path="url(#clip-2)"><path stroke-linecap="butt" transform="matrix(2.303707, 0, 0, 2.303459, 376.851609, 29.052691)" fill="none" stroke-linejoin="miter" d="M 145.129548 165.080394 C 149.4619 163.238734 154.660723 163.360833 158.679383 165.914737 C 161.940093 169.048611 162.492871 174.090282 161.156709 178.255214 C 158.340256 187.685665 152.432656 195.77981 146.467406 203.45848 C 134.857379 218.420693 120.529247 230.893444 107.225279 244.271762 C 97.599148 253.312175 88.658054 263.098748 78.43845 271.493053 C 71.262515 277.618353 64.296838 284.016679 58.182371 291.222215 C 57.129381 292.609395 55.564308 293.416605 53.990757 294.069495 C 55.313353 289.268631 58.492673 285.249539 60.635958 280.799709 C 76.318904 256.101798 91.686462 231.200387 107.796709 206.777198 C 112.924315 199.286764 118.053617 191.792939 123.549176 184.568749 C 129.22956 176.696756 135.683154 168.492382 145.129548 165.080394 Z M 145.129548 165.080394 " stroke="rgb(0%, 0%, 0%)" stroke-width="0.1" stroke-opacity="1" stroke-miterlimit="10"/></g><g clip-path="url(#clip-3)"><path fill="rgb(67.83905%, 1.568604%, 8.628845%)" d="M 711.1875 409.308594 C 721.167969 405.066406 733.144531 405.347656 742.402344 411.230469 C 749.914062 418.449219 751.1875 430.0625 748.109375 439.65625 C 741.621094 461.378906 728.011719 480.023438 714.269531 497.710938 C 687.523438 532.175781 654.515625 560.90625 623.867188 591.722656 C 601.691406 612.546875 581.09375 635.089844 557.550781 654.425781 C 541.019531 668.535156 524.972656 683.273438 510.886719 699.871094 C 508.460938 703.066406 504.855469 704.925781 501.230469 706.429688 C 504.277344 695.371094 511.601562 686.113281 516.539062 675.863281 C 552.667969 618.972656 588.070312 561.613281 625.183594 505.355469 C 636.996094 488.101562 648.8125 470.839844 661.472656 454.199219 C 674.558594 436.066406 689.425781 417.167969 711.1875 409.308594 Z M 711.1875 409.308594 " fill-opacity="1" fill-rule="nonzero"/></g><g clip-path="url(#clip-4)"><path fill="rgb(67.83905%, 1.568604%, 8.628845%)" d="M 763.921875 47.289062 C 783.453125 47.289062 799.292969 63.125 799.292969 82.65625 C 799.292969 102.191406 783.457031 118.023438 763.921875 118.023438 C 744.386719 118.023438 728.550781 102.191406 728.550781 82.65625 C 728.550781 63.125 744.386719 47.289062 763.921875 47.289062 M 763.921875 61.109375 C 752.039062 61.109375 742.371094 70.773438 742.371094 82.65625 C 742.371094 94.539062 752.039062 104.203125 763.921875 104.203125 C 775.800781 104.203125 785.46875 94.539062 785.46875 82.65625 C 785.46875 70.773438 775.804688 61.109375 763.921875 61.109375 Z M 763.921875 61.109375 " fill-opacity="1" fill-rule="nonzero"/></g></svg>