<?xml version="1.0" standalone="no"?>
<!DOCTYPE svg PUBLIC "-//W3C//DTD SVG 20010904//EN"
 "http://www.w3.org/TR/2001/REC-SVG-20010904/DTD/svg10.dtd">
<svg version="1.0" xmlns="http://www.w3.org/2000/svg"
 width="712.000000pt" height="308.000000pt" viewBox="0 0 712.000000 308.000000"
 preserveAspectRatio="xMidYMid meet">
<metadata>
Created by potrace 1.16, written by Peter Selinger 2001-2019
</metadata>
<g transform="translate(0.000000,308.000000) scale(0.100000,-0.100000)"
fill="#3532C1" stroke="none">
<path d="M776 2880 c-41 -13 -85 -58 -98 -101 -29 -98 40 -189 144 -189 111 0
179 110 129 212 -31 66 -107 99 -175 78z m105 -79 c49 -50 37 -121 -27 -147
-29 -12 -39 -12 -68 0 -40 17 -56 42 -56 86 0 43 47 90 90 90 22 0 41 -9 61
-29z"/>
<path d="M970 2817 c0 -3 49 -39 108 -81 135 -93 187 -143 218 -209 52 -112
19 -180 -126 -259 -116 -63 -150 -102 -150 -172 0 -29 5 -38 30 -51 77 -40
200 4 294 106 111 119 148 243 110 369 -30 100 -189 232 -330 275 -53 16 -154
30 -154 22z"/>
<path d="M6561 2479 c-280 -36 -262 -31 -256 -77 9 -78 14 -710 6 -987 -4
-159 -6 -292 -4 -294 4 -5 194 16 215 24 12 5 14 40 10 233 -5 286 -16 267
161 292 188 27 180 24 236 93 l51 62 0 296 0 297 -42 34 c-84 69 -69 67 -377
27z m187 -391 l-3 -183 -30 -14 c-32 -16 -158 -21 -172 -8 -12 13 -16 317 -4
349 12 31 26 35 134 37 l77 1 -2 -182z"/>
<path d="M571 2490 c-91 -22 -163 -115 -163 -209 2 -178 216 -275 356 -160
143 119 73 350 -114 372 -25 3 -60 2 -79 -3z"/>
<path d="M5990 2409 c-118 -15 -106 21 -97 -286 10 -346 5 -819 -9 -833 -17
-17 -183 -35 -197 -21 -9 9 -13 153 -15 558 l-4 545 -41 -6 c-23 -3 -68 -8
-99 -12 -31 -3 -63 -11 -71 -18 -11 -9 -12 -42 -6 -176 4 -91 8 -334 9 -540 2
-206 5 -407 9 -446 6 -69 7 -72 54 -112 26 -23 53 -39 60 -37 6 2 104 16 217
29 l205 26 51 52 51 53 7 545 c3 300 9 578 13 618 l6 72 -39 -1 c-22 -1 -68
-5 -104 -10z"/>
<path d="M5190 2313 c-25 -2 -68 -8 -97 -14 l-52 -10 -32 -77 c-17 -42 -74
-177 -124 -300 -51 -123 -96 -226 -99 -230 -14 -13 -39 31 -126 218 -49 107
-104 224 -122 260 l-33 65 -55 -3 c-94 -6 -176 -26 -171 -42 23 -94 26 -1195
3 -1267 l-11 -33 67 1 c37 0 92 6 122 12 49 11 55 15 55 37 0 14 -4 156 -8
315 -8 276 -3 480 13 470 4 -2 44 -87 89 -187 45 -101 88 -191 96 -201 20 -28
120 -14 142 20 9 13 51 110 95 216 43 106 86 199 95 207 14 14 15 -17 9 -340
-3 -195 -9 -379 -12 -409 l-7 -54 91 7 c50 4 103 11 118 15 l27 7 1 644 c1
355 3 652 6 660 6 16 -10 19 -80 13z"/>
<path d="M3740 2139 c-148 -17 -140 -12 -140 -74 0 -32 -33 -202 -79 -407 -44
-194 -103 -454 -130 -578 -28 -124 -60 -244 -71 -268 -11 -23 -20 -45 -20 -49
0 -9 168 5 213 17 32 10 37 15 37 42 0 17 10 71 21 121 26 111 44 132 120 141
30 4 73 10 96 13 72 9 107 -45 120 -190 3 -37 9 -69 12 -71 9 -6 229 19 237
26 3 4 -5 42 -20 85 -60 184 -269 1074 -268 1146 0 65 11 61 -128 46z m24
-516 c32 -139 46 -218 46 -264 0 -36 -2 -39 -37 -45 -43 -9 -111 -9 -119 -1
-3 3 6 69 20 148 41 230 49 269 57 269 4 0 19 -48 33 -107z"/>
<path d="M2910 2039 c-118 -15 -244 -31 -280 -35 l-65 -6 3 -527 c2 -289 -1
-590 -5 -669 l-8 -143 25 5 c14 3 124 17 245 31 312 36 364 45 375 65 5 9 14
48 20 86 6 38 13 82 15 98 5 28 4 29 -32 22 -62 -11 -367 -56 -380 -56 -7 0
-20 14 -29 31 -12 25 -15 56 -12 160 4 162 2 160 132 167 l96 5 0 124 c0 115
-1 125 -17 118 -39 -17 -140 -34 -166 -29 -15 3 -32 14 -37 24 -6 10 -10 71
-10 135 0 114 1 117 28 144 23 24 41 29 122 40 52 7 141 15 198 18 56 3 105 9
107 13 5 8 -19 155 -30 182 -6 16 -36 29 -65 27 -8 -1 -112 -14 -230 -30z"/>
<path d="M2085 1940 c-368 -47 -384 -50 -389 -68 -22 -75 -33 -212 -18 -212 5
0 31 6 58 14 27 8 77 17 111 20 95 9 93 14 96 -237 3 -281 -2 -738 -9 -806
l-6 -54 104 6 c128 8 152 14 141 36 -10 21 -17 867 -8 988 7 92 7 92 38 103
18 6 78 14 135 17 89 5 102 8 102 24 0 18 -26 149 -36 182 -7 23 -46 21 -319
-13z"/>
<path d="M443 1880 c-82 -19 -274 -174 -335 -269 -103 -163 99 -301 495 -337
90 -8 103 6 28 31 -58 19 -288 152 -335 193 l-34 30 36 34 c21 20 72 61 114
92 120 87 167 168 121 208 -25 22 -52 27 -90 18z"/>
<path d="M1183 1525 c-82 -35 -44 -147 113 -335 72 -87 200 -212 247 -240 47
-29 111 -27 144 6 22 22 24 31 19 66 -9 58 -46 123 -133 240 -136 181 -252
279 -329 278 -16 -1 -43 -7 -61 -15z"/>
<path d="M910 1330 c-58 -58 -25 -172 100 -339 75 -102 353 -386 585 -599 94
-86 208 -195 254 -242 142 -144 119 -85 -112 280 -439 693 -577 876 -684 908
-62 18 -120 15 -143 -8z"/>
</g>
</svg>
